<svg width="50" height="50" viewBox="0 0 50 50" fill="none" xmlns="http://www.w3.org/2000/svg">
<path d="M41.7709 18.2409V15.2789C41.7709 15.0291 41.6716 14.7895 41.495 14.6128C41.3183 14.4362 41.0787 14.3369 40.8289 14.3369H6.92589C6.67605 14.3369 6.43645 14.4362 6.25979 14.6128C6.08313 14.7895 5.98389 15.0291 5.98389 15.2789V34.6169C5.98389 34.8667 6.08313 35.1063 6.25979 35.283C6.43645 35.4597 6.67605 35.5589 6.92589 35.5589H40.8259C41.0757 35.5589 41.3153 35.4597 41.492 35.283C41.6686 35.1063 41.7679 34.8667 41.7679 34.6169V30.4959L47.2299 25.0339C47.4065 24.8571 47.5058 24.6174 47.5058 24.3674C47.5058 24.1175 47.4065 23.8777 47.2299 23.7009L41.7709 18.2409ZM39.8839 30.1079V33.6759H7.86989V16.2229H39.8839V18.6329C39.8847 18.8826 39.9839 19.1219 40.1599 19.2989L45.2309 24.3699L40.1599 29.4409C40.072 29.5283 40.0023 29.6322 39.9549 29.7467C39.9075 29.8612 39.8834 29.984 39.8839 30.1079Z" fill="#FF710B"/>
<path d="M15.5939 21.7629C14.9642 21.7627 14.3485 21.9493 13.8248 22.299C13.3011 22.6487 12.8929 23.1458 12.6517 23.7276C12.4105 24.3093 12.3473 24.9495 12.4699 25.5671C12.5926 26.1848 12.8957 26.7522 13.3408 27.1977C13.786 27.6431 14.3532 27.9465 14.9708 28.0696C15.5884 28.1926 16.2286 28.1298 16.8105 27.889C17.3924 27.6481 17.8898 27.2402 18.2398 26.7167C18.5898 26.1932 18.7767 25.5777 18.7769 24.9479C18.7764 24.1037 18.441 23.2942 17.8442 22.6971C17.2474 22.1 16.4381 21.764 15.5939 21.7629ZM16.8939 24.9479C16.8939 25.2051 16.8177 25.4564 16.6748 25.6702C16.532 25.884 16.329 26.0506 16.0914 26.149C15.8539 26.2474 15.5925 26.2731 15.3403 26.223C15.0881 26.1728 14.8565 26.049 14.6747 25.8672C14.4929 25.6854 14.3691 25.4537 14.3189 25.2016C14.2688 24.9494 14.2945 24.688 14.3929 24.4505C14.4913 24.2129 14.6579 24.0099 14.8717 23.867C15.0855 23.7242 15.3368 23.6479 15.5939 23.6479C15.9387 23.6479 16.2694 23.7849 16.5132 24.0287C16.757 24.2725 16.8939 24.6032 16.8939 24.9479Z" fill="#FF710B"/>
<path d="M23.0609 21.7629C22.4313 21.7631 21.8158 21.95 21.2924 22.3C20.7689 22.6499 20.361 23.1472 20.1201 23.7289C19.8792 24.3107 19.8163 24.9508 19.9392 25.5684C20.062 26.1859 20.3653 26.7531 20.8105 27.1984C21.2557 27.6436 21.823 27.9468 22.4405 28.0697C23.0581 28.1926 23.6982 28.1296 24.2799 27.8888C24.8617 27.6479 25.359 27.24 25.7089 26.7165C26.0589 26.193 26.2457 25.5776 26.2459 24.9479C26.2454 24.1034 25.9097 23.2936 25.3125 22.6964C24.7153 22.0992 23.9055 21.7635 23.0609 21.7629ZM24.3609 24.9479C24.3609 25.2051 24.2847 25.4564 24.1418 25.6702C23.999 25.884 23.796 26.0506 23.5584 26.149C23.3209 26.2474 23.0595 26.2731 22.8073 26.223C22.5551 26.1728 22.3235 26.049 22.1417 25.8672C21.9599 25.6854 21.8361 25.4537 21.7859 25.2016C21.7358 24.9494 21.7615 24.688 21.8599 24.4505C21.9583 24.2129 22.1249 24.0099 22.3387 23.867C22.5525 23.7242 22.8038 23.6479 23.0609 23.6479C23.2316 23.6479 23.4007 23.6816 23.5584 23.7469C23.7161 23.8122 23.8595 23.908 23.9802 24.0287C24.1009 24.1494 24.1966 24.2927 24.262 24.4505C24.3273 24.6082 24.3609 24.7772 24.3609 24.9479Z" fill="#FF710B"/>
<path d="M30.5288 21.7629C29.899 21.7625 29.2832 21.9489 28.7594 22.2985C28.2356 22.6481 27.8271 23.1452 27.5858 23.7269C27.3445 24.3086 27.2811 24.9488 27.4036 25.5665C27.5262 26.1843 27.8292 26.7518 28.2743 27.1973C28.7194 27.6428 29.2866 27.9464 29.9043 28.0695C30.5219 28.1926 31.1621 28.1298 31.7441 27.8891C32.326 27.6483 32.8235 27.2403 33.1735 26.7168C33.5236 26.1933 33.7106 25.5777 33.7108 24.9479C33.7102 24.1039 33.3749 23.2946 32.7784 22.6974C32.1818 22.1003 31.3728 21.7643 30.5288 21.7629ZM31.8288 24.9479C31.8288 25.2051 31.7525 25.4564 31.6097 25.6702C31.4668 25.884 31.2638 26.0506 31.0263 26.149C30.7887 26.2474 30.5273 26.2731 30.2752 26.223C30.023 26.1728 29.7913 26.049 29.6095 25.8672C29.4277 25.6854 29.3039 25.4537 29.2538 25.2016C29.2036 24.9494 29.2293 24.688 29.3277 24.4505C29.4261 24.2129 29.5927 24.0099 29.8065 23.867C30.0203 23.7242 30.2717 23.6479 30.5288 23.6479C30.8736 23.6479 31.2042 23.7849 31.448 24.0287C31.6918 24.2725 31.8288 24.6032 31.8288 24.9479Z" fill="#FF710B"/>
</svg>
