<svg width="50" height="50" viewBox="0 0 50 50" fill="none" xmlns="http://www.w3.org/2000/svg">
<path d="M39.4779 19.742L43.1599 13.753C43.2241 13.6489 43.2631 13.5314 43.2739 13.4096C43.2847 13.2878 43.267 13.1652 43.2222 13.0514C43.1773 12.9377 43.1066 12.836 43.0156 12.7543C42.9246 12.6727 42.8158 12.6133 42.6979 12.581L29.1529 8.87102C28.9887 8.8263 28.8144 8.83582 28.656 8.89816C28.4976 8.96051 28.3636 9.07235 28.2739 9.21702L25.0619 14.442L21.8509 9.21702C21.762 9.07163 21.628 8.9592 21.4694 8.89677C21.3108 8.83433 21.1361 8.82529 20.9719 8.87102L7.42294 12.579C7.30537 12.6118 7.19703 12.6715 7.1065 12.7533C7.01596 12.8352 6.9457 12.937 6.90128 13.0507C6.85685 13.1643 6.83948 13.2868 6.85053 13.4083C6.86158 13.5299 6.90074 13.6472 6.96494 13.751L10.5299 19.551L6.83994 25.551C6.77622 25.6553 6.73757 25.7729 6.72705 25.8946C6.71653 26.0163 6.73442 26.1388 6.77931 26.2524C6.8242 26.3661 6.89486 26.4677 6.98572 26.5494C7.07659 26.631 7.18518 26.6905 7.30294 26.723L10.6209 27.631V37.481C10.6206 37.6536 10.6771 37.8214 10.7818 37.9586C10.8865 38.0958 11.0334 38.1947 11.1999 38.24L24.7439 41.95C24.8125 41.9682 24.8831 41.9772 24.9539 41.977C25.0238 41.9773 25.0934 41.9682 25.1609 41.95L38.7069 38.242C38.8737 38.1966 39.021 38.0976 39.126 37.9603C39.2309 37.8229 39.2879 37.6549 39.2879 37.482V27.625L42.5879 26.725C42.7058 26.6927 42.8145 26.6333 42.9055 26.5517C42.9965 26.47 43.0673 26.3684 43.1122 26.2547C43.1571 26.141 43.1749 26.0184 43.1643 25.8966C43.1537 25.7748 43.1149 25.6572 43.0509 25.553L39.4779 19.742ZM12.1959 28.062L20.8499 30.432C20.9169 30.4492 20.9858 30.458 21.0549 30.458C21.1892 30.4578 21.3212 30.4234 21.4385 30.358C21.5557 30.2925 21.6543 30.1982 21.7249 30.084L24.1639 26.116V40.156L12.1959 36.879V28.062ZM11.8629 18.708L8.85594 13.82L20.8229 10.542L23.8229 15.434L11.8629 18.708ZM26.2839 15.459L29.3059 10.542L41.2679 13.82L38.2469 18.734L26.2839 15.459ZM24.9529 22.542L14.4529 19.665L25.0109 16.774L35.5109 19.65L32.6479 20.434L24.9529 22.542ZM23.7159 23.842L20.6929 28.755L8.73094 25.48L11.7539 20.568L23.7159 23.842ZM37.7159 36.879L25.7419 40.156V26.142L28.1639 30.082C28.2347 30.1966 28.3336 30.2911 28.4512 30.3566C28.5688 30.422 28.7013 30.4563 28.8359 30.456C28.9062 30.4562 28.9761 30.4471 29.0439 30.429L37.7119 28.055L37.7159 36.879ZM29.2019 28.754L26.1749 23.842L29.1199 23.035L38.1359 20.567L41.1609 25.479L29.2019 28.754Z" fill="#FF710B"/>
</svg>
