<svg width="104" height="15" viewBox="0 0 104 15" fill="none" xmlns="http://www.w3.org/2000/svg">
<path d="M0 0H5.22114V14.2857H0.0963078L0 0Z" fill="#FF710B"/>
<path d="M6.52734 0H10.8645L16.5133 7.91621V0H20.8855V14.2857H16.5133L10.8995 6.4527V14.2857H6.52734V0Z" fill="#FF710B"/>
<path fill-rule="evenodd" clip-rule="evenodd" d="M95.8345 8.48273C98.2725 7.87406 100.779 7.56587 103.295 7.56535C103.586 7.55444 103.82 7.42906 103.999 7.2413V14.1593H99.6873C100.773 13.7822 101.842 13.3604 102.893 12.8948C103.069 12.8151 103.217 12.6845 103.316 12.5206C103.415 12.3566 103.459 12.1671 103.445 11.9774C103.445 11.2931 102.833 10.2301 102.042 10.2301C101.969 10.2068 101.891 10.2068 101.818 10.2301C99.9379 11.1637 97.9266 11.8212 95.8495 12.1813C95.8382 11.8563 95.8205 11.5355 95.8029 11.2157C95.7739 10.6901 95.745 10.1672 95.745 9.63309C95.7303 9.24757 95.7603 8.86165 95.8345 8.48273ZM93.3235 14.1593H85.54C86.1198 13.8485 86.6742 13.4905 87.197 13.0879C88.7345 11.9039 89.9517 10.3707 90.7423 8.622C90.9875 8.07792 91.1103 7.48888 91.1024 6.89458C91.1024 6.01622 90.7574 5.29886 89.7523 5.29886C89.6098 5.29886 89.4673 5.31716 89.3248 5.33547C89.1823 5.35378 89.0398 5.37208 88.8972 5.37208C87.2921 5.51847 85.687 5.65023 84.0819 5.65023C83.0118 5.64799 81.9436 5.56476 80.8867 5.40134C81.536 4.63485 82.3341 4.00108 83.2351 3.53632C84.1361 3.07157 85.1223 2.78498 86.1371 2.69307H87.4121C88.2372 2.69307 89.1222 2.5906 89.1222 1.59513C89.1251 1.14642 88.9811 0.708585 88.7113 0.345241C88.617 0.218165 88.5089 0.102525 88.3896 0H99.9591C99.8029 1.37305e-06 99.6466 0.002663 99.4904 0.00798978C97.7147 0.00798978 95.9092 0.109939 94.1335 0.255553C93.4173 0.313798 93.1188 1.47871 93.1188 2.03204C93.0947 2.45607 93.227 2.87451 93.4918 3.21151V5.49766C93.2827 5.49664 93.0756 5.53851 92.8841 5.62062C92.6926 5.70273 92.521 5.82322 92.3803 5.97426C92.2396 6.12529 92.1329 6.3035 92.0674 6.49733C92.0018 6.69117 91.9788 6.89632 91.9997 7.09942C91.9881 7.42816 92.091 7.75101 92.2915 8.01542C92.492 8.27983 92.7784 8.47023 93.1039 8.55556C93.0516 9.5173 93.1063 10.484 93.1608 11.447C93.1995 12.1315 93.2382 12.8142 93.2382 13.4918C93.2476 13.7272 93.2747 13.9516 93.3235 14.1593ZM99.9594 0C100.737 6.83697e-06 101.514 0.0659732 102.281 0.197295C102.893 0.342909 103.042 1.15835 103.042 1.65343C103.042 2.14852 102.773 3.24062 102.221 3.24062C101.535 3.24062 100.856 3.15325 100.177 3.06589C99.4978 2.97852 98.8189 2.89116 98.1325 2.89116C97.4659 2.88381 96.8068 3.02841 96.2076 3.31345C96.1294 3.52856 96.089 3.75502 96.0882 3.98326C96.1186 4.3953 96.1186 4.80895 96.0882 5.22099C96.6777 5.17806 97.2645 5.12628 97.8503 5.07459C99.2516 4.95093 100.647 4.8278 102.057 4.8278C102.288 4.8278 102.516 4.79141 102.743 4.75501C102.971 4.71862 103.198 4.68223 103.43 4.68223C103.667 4.68223 103.854 4.74489 103.999 4.85104V0H99.9594ZM75.8113 14.1593H79.6626C79.5078 13.8587 79.4165 13.5484 79.4165 13.2773C79.4125 13.1287 79.4391 12.9809 79.4946 12.8425C79.5501 12.7041 79.6334 12.578 79.7397 12.4716C79.8459 12.3651 79.973 12.2805 80.1133 12.2228C80.2536 12.1651 80.4044 12.1354 80.5566 12.1354C82.5288 12.0514 84.4324 11.405 86.032 10.2762C86.6084 9.84746 87.0331 9.25379 87.2471 8.57808H85.477C83.8269 8.57808 82.1618 8.69519 80.5116 8.84158H79.9566C79.4466 8.84158 77.8714 8.72446 77.6164 8.19745C77.4179 7.75944 77.3157 7.28569 77.3164 6.80675C77.4321 6.07323 77.6959 5.3694 78.0925 4.73613C78.489 4.10286 79.0105 3.55273 79.6266 3.11762C80.925 1.64039 82.6161 0.566688 84.4918 0H63.5211L63.4222 0.0971743C63.4222 3.05138 63.3321 6.0056 63.227 9.06321C63.2218 10.4739 62.7436 11.8436 61.8665 12.9599C61.5089 13.415 61.0932 13.8176 60.6321 14.1593H65.538C65.5565 13.7752 65.598 13.3913 65.6393 13.0085C65.6945 12.4973 65.7495 11.9879 65.7495 11.4821C65.7495 10.6183 65.4722 10.3227 65.2278 10.0622C65.0353 9.85703 64.8633 9.67365 64.8633 9.25155C64.8962 8.61122 65.1632 8.00305 65.6166 7.53572C65.6166 7.25509 65.6353 6.97808 65.6539 6.70287C65.6722 6.43121 65.6904 6.16131 65.6904 5.8914C65.6883 5.17977 65.6488 4.46871 65.5723 3.76094C65.3948 3.63165 65.2524 3.46262 65.1572 3.26838C65.062 3.07414 65.0169 2.86048 65.0257 2.64566C65.043 2.08668 65.2751 1.55405 65.6767 1.15206C66.0784 0.750067 66.6205 0.507632 67.1971 0.472261H67.714C70.6313 0.316016 73.5499 0.754419 76.2811 1.75912C76.5759 1.9032 76.821 2.12737 76.9863 2.40418C77.1516 2.68099 77.2299 2.99846 77.2117 3.31769C77.2117 5.00584 73.7596 6.98142 72.008 7.98385C71.8458 8.07669 71.6982 8.16118 71.5692 8.23633C73.5707 8.92447 75.4199 9.97233 77.0196 11.3248C77.2172 11.5414 77.3228 11.8224 77.3151 12.1113C77.2412 12.7261 76.6947 14.1559 75.8232 14.1559L75.8113 14.1593ZM75.5988 14.1593L75.5869 14.1559C75.1401 13.8831 74.7061 13.5979 74.273 13.3133C73.7754 12.9863 73.279 12.6601 72.7657 12.3543C71.7094 11.7274 70.6142 11.164 69.4866 10.6671C69.1492 10.5062 68.7832 10.4091 68.4083 10.3811H68.3197C68.2116 11.3641 68.1869 12.354 68.2458 13.3409C68.2531 13.4743 68.2531 13.6079 68.2458 13.7413C68.2069 13.8858 68.1541 14.0257 68.0886 14.1593H75.5988ZM47.9267 14.1593H53.9105C53.8263 13.9565 53.7795 13.726 53.7795 13.465C53.7293 12.6756 53.7462 11.8665 53.7629 11.0639V11.0639V11.0639V11.0639C53.7712 10.6651 53.7795 10.2679 53.7795 9.87565C53.7795 8.49455 53.7982 7.11715 53.817 5.73975L53.817 5.73933C53.8358 4.36207 53.8546 2.9848 53.8546 1.60385C53.8546 0.835756 54.8309 0.244894 55.5518 0.244894C55.6855 0.230936 55.8206 0.24659 55.9473 0.290648C56.0741 0.334705 56.1891 0.406069 56.2842 0.499538C56.3792 0.593006 56.4518 0.706187 56.4966 0.830813C56.5414 0.95544 56.5573 1.08834 56.5431 1.21979V1.33798C56.5431 2.4532 56.4718 3.56102 56.4004 4.66884C56.3291 5.77666 56.2577 6.88448 56.2577 7.99969C56.2173 8.98687 56.2676 9.97562 56.408 10.9539C56.5431 11.5595 56.8135 12.0765 57.5194 12.0765C57.8675 12.0487 58.2055 11.948 58.5107 11.7811C60.6886 10.7471 60.7337 9.55065 60.7337 7.34976C60.7337 5.87266 60.6436 4.39555 60.5535 2.91845C60.5535 2.55839 60.52 2.19101 60.4864 1.82178C60.4524 1.44881 60.4182 1.07393 60.4182 0.702793C60.4182 0.468887 60.5689 0.224613 60.7967 0H45.9116H35.7577C35.8886 0 36.0195 0.0038538 36.1502 0.0115574C36.8046 0.112679 36.9792 0.993864 36.9792 1.52836C36.9792 2.06286 36.7465 2.97296 35.9612 2.97296H35.2632C34.4324 3.0441 33.6253 3.28508 32.8927 3.68079C31.6626 4.22619 30.5739 5.04317 29.7096 6.06952C28.8452 7.09588 28.2279 8.30457 27.9047 9.60364C27.8974 9.69499 27.8974 9.78676 27.9047 9.87811C27.9047 11.3227 29.7516 11.8717 30.9586 11.8717C32.5286 11.8717 34.3959 10.8895 35.4605 10.3296L35.4605 10.3296C35.8849 10.1064 36.1817 9.95033 36.2812 9.95033C37.081 9.95033 37.7354 10.9904 37.7354 11.7127C37.7137 12.7676 36.1956 13.5944 34.4699 14.1593H40.9203C40.4779 13.8912 40.0716 13.5675 39.7123 13.1953C38.7454 12.1059 38.2033 10.7177 38.1816 9.27565C38.3017 7.45736 38.824 5.68618 39.7123 4.08429C40.3212 2.9569 41.2058 1.99409 42.2874 1.28153C43.3689 0.568967 44.6139 0.128726 45.9116 0C47.513 0.0782389 49.0366 0.698879 50.2209 1.75535C51.4051 2.81183 52.1762 4.23823 52.4017 5.78978C52.4164 6.00398 52.4164 6.21893 52.4017 6.43313C52.3837 8.06956 51.9188 9.67155 51.0549 11.0735C50.2784 12.3338 49.2048 13.3912 47.9267 14.1593ZM26.5954 13.8087C26.7245 13.9342 26.861 14.0512 27.004 14.1593H25.7285V12.618C25.9468 13.0603 26.2397 13.4632 26.5954 13.8087ZM25.7285 0V8.47158C26.2236 6.90683 27.0628 5.4612 28.1956 4.24421C29.9988 1.99064 32.3256 0.0115574 35.365 0.0115574C35.4957 0.0038538 35.6266 0 35.7575 0H25.7285ZM45.4065 3.00711C46.7387 3.16598 47.9618 3.80639 48.8352 4.80237V4.86223C49.348 5.51778 49.613 6.32648 49.5853 7.15121C49.6061 7.87391 49.4705 8.59277 49.1873 9.26067C48.7861 10.0081 48.2039 10.6483 47.4916 11.1255C46.7792 11.6027 45.9583 11.9024 45.1003 11.9985C44.9378 12.0201 44.773 12.0201 44.6105 11.9985C42.2532 11.5347 41.1205 10.5473 41.1205 8.10872C41.1043 7.40989 41.2314 6.71493 41.4942 6.06486C41.7571 5.41479 42.1505 4.82277 42.6512 4.32366C43.3559 3.54669 44.3463 3.07346 45.4065 3.00711ZM68.2458 3.60363C68.9639 3.4531 69.6972 3.38117 70.4319 3.38916V3.31769C70.9784 3.31769 73.4008 3.44634 73.5485 4.17556C73.5485 4.38151 72.4564 4.78249 71.97 4.96105C71.8824 4.99324 71.8144 5.0182 71.776 5.03348C70.6534 5.59112 69.5013 6.03438 68.3492 6.46333C68.1999 5.96658 68.1302 5.4506 68.1424 4.93338C68.1401 4.48817 68.1746 4.0435 68.2458 3.60363Z" fill="#FF710B"/>
</svg>
