<svg width="100" height="100" viewBox="0 0 100 100" fill="none" xmlns="http://www.w3.org/2000/svg">
<path d="M89.5 28C91.433 28 93 26.433 93 24.5C93 22.567 91.433 21 89.5 21C87.567 21 86 22.567 86 24.5C86 26.433 87.567 28 89.5 28Z" stroke="white" stroke-width="2"/>
<path d="M8.5 43C9.88071 43 11 41.8807 11 40.5C11 39.1193 9.88071 38 8.5 38C7.11929 38 6 39.1193 6 40.5C6 41.8807 7.11929 43 8.5 43Z" stroke="white" stroke-width="2"/>
<path d="M72.811 7.99609V13.6841" stroke="white" stroke-width="2" stroke-linecap="round" stroke-linejoin="round"/>
<path d="M75.655 10.8403H69.967" stroke="white" stroke-width="2" stroke-linecap="round" stroke-linejoin="round"/>
<path d="M20.4709 15.0942V20.7822" stroke="white" stroke-width="2" stroke-linecap="round" stroke-linejoin="round"/>
<path d="M23.315 17.9385H17.627" stroke="white" stroke-width="2" stroke-linecap="round" stroke-linejoin="round"/>
<path d="M50.5904 54.4585C50.5091 54.4589 50.428 54.448 50.3497 54.4261L29.4295 48.6988C29.2382 48.6456 29.0697 48.5312 28.9496 48.3731C28.8295 48.2151 28.7645 48.022 28.7645 47.8235C28.7645 47.625 28.8295 47.4319 28.9496 47.2739C29.0697 47.1158 29.2382 47.0014 29.4295 46.9482L50.3497 41.221C50.5062 41.1789 50.6711 41.1789 50.8276 41.221L71.7479 46.9482C71.9397 47.0008 72.1088 47.115 72.2294 47.2732C72.3499 47.4313 72.4153 47.6246 72.4153 47.8235C72.4153 48.0224 72.3499 48.2158 72.2294 48.3739C72.1088 48.532 71.9397 48.6462 71.7479 48.6988L50.8276 54.4261C50.7505 54.4479 50.6706 54.4588 50.5904 54.4585ZM33.1032 47.8244L50.5904 52.6106L68.0767 47.8244L50.5904 43.0364L33.1032 47.8244Z" fill="white"/>
<path d="M50.5857 81.9999C50.4663 82 50.3481 81.9765 50.2379 81.9308C50.1276 81.8851 50.0276 81.8181 49.9433 81.7336C49.859 81.6491 49.7923 81.5487 49.7469 81.4384C49.7015 81.328 49.6784 81.2097 49.6788 81.0904V53.5519C49.6788 53.3114 49.7744 53.0807 49.9445 52.9107C50.1145 52.7406 50.3452 52.645 50.5857 52.645C50.8262 52.645 51.0568 52.7406 51.2269 52.9107C51.397 53.0807 51.4925 53.3114 51.4925 53.5519V81.0904C51.4928 81.2097 51.4695 81.3278 51.424 81.4381C51.3786 81.5484 51.3119 81.6486 51.2276 81.7331C51.1434 81.8176 51.0433 81.8846 50.9332 81.9304C50.823 81.9761 50.705 81.9998 50.5857 81.9999Z" fill="white"/>
<path d="M50.5901 81.9998C50.5088 81.999 50.428 81.988 50.3494 81.9674L29.4291 76.2375C29.2374 76.185 29.0683 76.0709 28.9479 75.9126C28.8275 75.7544 28.7625 75.561 28.763 75.3622V59.2177C28.7592 59.0963 28.7799 58.9754 28.8237 58.8621C28.8676 58.7488 28.9337 58.6456 29.0183 58.5584C29.1028 58.4712 29.204 58.4018 29.3159 58.3545C29.4277 58.3071 29.548 58.2827 29.6694 58.2827C29.7909 58.2827 29.911 58.3071 30.0229 58.3545C30.1347 58.4018 30.2359 58.4712 30.3205 58.5584C30.405 58.6456 30.4712 58.7488 30.515 58.8621C30.5589 58.9754 30.5796 59.0963 30.5758 59.2177V74.675L50.5918 80.1546L70.6052 74.675V59.2177C70.6052 58.977 70.7008 58.7461 70.8711 58.5759C71.0413 58.4056 71.2722 58.31 71.5129 58.31C71.7536 58.31 71.9845 58.4056 72.1548 58.5759C72.325 58.7461 72.4206 58.977 72.4206 59.2177V75.3666C72.4207 75.5657 72.3552 75.7592 72.2344 75.9174C72.1135 76.0756 71.944 76.1896 71.7519 76.2419L50.8317 81.9717C50.7527 81.9912 50.6715 82.0007 50.5901 81.9998Z" fill="white"/>
<path d="M29.8361 48.7313C29.6806 48.731 29.5278 48.6905 29.3924 48.6139C29.257 48.5372 29.1436 48.4269 29.0633 48.2937L23.0655 38.5461C22.9916 38.4262 22.9466 38.2908 22.9341 38.1505C22.9216 38.0102 22.9421 37.869 22.9937 37.738C23.0454 37.607 23.1268 37.4898 23.2317 37.3957C23.3365 37.3017 23.4619 37.2335 23.5978 37.1964L44.518 31.4665C44.7076 31.4154 44.9085 31.4268 45.0911 31.4991C45.2737 31.5713 45.4282 31.7004 45.5316 31.8674L51.5258 41.615C51.6002 41.7347 51.6454 41.8702 51.6581 42.0106C51.6708 42.151 51.6505 42.2924 51.5988 42.4236C51.5471 42.5547 51.4654 42.6719 51.3603 42.7659C51.2552 42.8598 51.1297 42.9279 50.9936 42.9647L30.0733 48.6946C29.9961 48.7165 29.9164 48.7288 29.8361 48.7313ZM25.2459 38.6293L30.252 46.7698L49.3515 41.5406L44.3447 33.4001L25.2459 38.6293Z" fill="white"/>
<path d="M71.6811 48.7314C71.6001 48.7304 71.5195 48.7196 71.4412 48.699L50.5209 42.9691C50.3849 42.9323 50.2593 42.8642 50.1542 42.7702C50.0492 42.6763 49.9676 42.5591 49.9158 42.4279C49.8641 42.2968 49.8438 42.1554 49.8564 42.015C49.8691 41.8746 49.9144 41.7391 49.9887 41.6194L55.983 31.8718C56.0863 31.7048 56.2408 31.5757 56.4234 31.5035C56.606 31.4312 56.807 31.4198 56.9966 31.4709L77.9168 37.2007C78.0527 37.2377 78.1782 37.3059 78.2832 37.3999C78.3881 37.4939 78.4698 37.6111 78.5215 37.7422C78.5731 37.8732 78.5934 38.0145 78.5809 38.1549C78.5683 38.2952 78.5232 38.4307 78.449 38.5505L72.4522 48.2981C72.3718 48.4305 72.2585 48.54 72.1234 48.6159C71.9883 48.6918 71.836 48.7316 71.6811 48.7314ZM52.1613 41.5397L71.2608 46.7689L76.2668 38.6284L57.1717 33.4001L52.1613 41.5397Z" fill="white"/>
<path d="M56.5843 64.208C56.4288 64.2071 56.2762 64.1664 56.1409 64.0898C56.0056 64.0132 55.8922 63.9032 55.8115 63.7703L49.8164 54.0227C49.7426 53.9028 49.6977 53.7674 49.6853 53.6272C49.6729 53.4869 49.6934 53.3457 49.745 53.2148C49.7966 53.0838 49.8781 52.9667 49.9829 52.8726C50.0876 52.7786 50.2127 52.7102 50.3485 52.6729L71.2687 46.9431C71.4579 46.8914 71.6588 46.9027 71.8411 46.9749C72.0234 47.0472 72.1773 47.1767 72.2798 47.344L78.2775 57.0916C78.3509 57.212 78.3954 57.3476 78.4079 57.488C78.4203 57.6284 78.4003 57.7699 78.3492 57.9013C78.2972 58.032 78.2155 58.1489 78.1105 58.2426C78.0055 58.3363 77.8802 58.4044 77.7444 58.4413L56.8242 64.1712C56.7461 64.1932 56.6655 64.2056 56.5843 64.208ZM51.9968 54.1059L57.0001 62.2464L76.0997 57.0172L71.0937 48.8767L51.9968 54.1059Z" fill="white"/>
<path d="M44.5679 64.2078C44.4866 64.2066 44.4058 64.1957 44.3271 64.1754L23.4069 58.4455C23.2708 58.4092 23.1452 58.3413 23.0402 58.2475C22.9351 58.1537 22.8536 58.0366 22.8021 57.9054C22.7501 57.7744 22.7292 57.633 22.7412 57.4925C22.7532 57.3519 22.7977 57.2161 22.8712 57.0958L28.8689 47.3481C28.9715 47.1806 29.1257 47.051 29.3084 46.9787C29.491 46.9064 29.6923 46.8954 29.8817 46.9472L50.8019 52.6771C50.9377 52.7142 51.0631 52.7825 51.1679 52.8766C51.2728 52.9706 51.3544 53.0877 51.406 53.2187C51.4577 53.3498 51.478 53.491 51.4655 53.6313C51.4531 53.7716 51.4081 53.907 51.3341 54.0269L45.3399 63.7744C45.2587 63.9064 45.1452 64.0154 45.0101 64.0913C44.875 64.1671 44.7228 64.2072 44.5679 64.2078ZM25.0481 57.0161L44.1477 62.2453L49.1537 54.1048L30.0541 48.8756L25.0481 57.0161Z" fill="white"/>
<path d="M0 0V-2H-2V0H0ZM100 0H102V-2H100V0ZM100 100V102H102V100H100ZM0 100H-2V102H0V100ZM0 2H100V-2H0V2ZM98 0V100H102V0H98ZM100 98H0V102H100V98ZM2 100V0H-2V100H2Z" fill="#FF710B"/>
</svg>
