<svg width="100" height="100" viewBox="0 0 100 100" fill="none" xmlns="http://www.w3.org/2000/svg">
<path d="M54.083 73.7512H26.295C25.1596 73.7498 24.0711 73.2983 23.2682 72.4956C22.4653 71.6929 22.0136 70.6045 22.012 69.4691V38.6922C22.0133 37.5567 22.465 36.4682 23.2679 35.6654C24.0709 34.8627 25.1595 34.4112 26.295 34.4102H74.359C75.4946 34.4107 76.5837 34.8619 77.3869 35.6648C78.1902 36.4676 78.6419 37.5565 78.643 38.6922V52.7122C78.643 52.9774 78.5376 53.2317 78.3501 53.4193C78.1625 53.6068 77.9082 53.7122 77.643 53.7122C77.3777 53.7122 77.1234 53.6068 76.9359 53.4193C76.7483 53.2317 76.643 52.9774 76.643 52.7122V38.6922C76.6422 38.0866 76.4013 37.5062 75.9731 37.078C75.545 36.6498 74.9645 36.409 74.359 36.4082H26.295C25.6895 36.409 25.109 36.6498 24.6808 37.078C24.2526 37.5062 24.0118 38.0866 24.011 38.6922V69.4681C24.0118 70.0735 24.2527 70.6538 24.6809 71.0816C25.1091 71.5094 25.6896 71.7499 26.295 71.7502H54.083C54.3482 71.7502 54.6025 71.8555 54.7901 72.043C54.9776 72.2306 55.083 72.4849 55.083 72.7502C55.0831 72.8816 55.0573 73.0117 55.0071 73.1331C54.9569 73.2546 54.8833 73.365 54.7904 73.4579C54.6976 73.5509 54.5873 73.6246 54.4659 73.6749C54.3445 73.7252 54.2144 73.7512 54.083 73.7512Z" fill="#CBCED6" stroke="#CBCED6" stroke-width="0.5"/>
<path d="M77.643 52.3141H23.01C22.7448 52.3141 22.4904 52.2087 22.3029 52.0212C22.1154 51.8336 22.01 51.5793 22.01 51.3141V43.7061C22.01 43.4408 22.1154 43.1865 22.3029 42.9989C22.4904 42.8114 22.7448 42.7061 23.01 42.7061H77.643C77.9082 42.7061 78.1626 42.8114 78.3501 42.9989C78.5377 43.1865 78.643 43.4408 78.643 43.7061V51.3141C78.643 51.5793 78.5377 51.8336 78.3501 52.0212C78.1626 52.2087 77.9082 52.3141 77.643 52.3141ZM24.012 50.3141H76.643V44.7061H24.01L24.012 50.3141Z" fill="#CBCED6" stroke="#CBCED6" stroke-width="0.5"/>
<path d="M45.1531 59.1436H27.5601C27.4287 59.1436 27.2987 59.1177 27.1774 59.0674C27.0561 59.0172 26.9458 58.9435 26.853 58.8507C26.7601 58.7578 26.6864 58.6476 26.6362 58.5262C26.5859 58.4049 26.5601 58.2749 26.5601 58.1436C26.5601 57.8783 26.6654 57.624 26.853 57.4364C27.0405 57.2489 27.2948 57.1436 27.5601 57.1436H45.1531C45.4183 57.1436 45.6726 57.2489 45.8602 57.4364C46.0477 57.624 46.1531 57.8783 46.1531 58.1436C46.1531 58.4088 46.0477 58.6631 45.8602 58.8507C45.6726 59.0382 45.4183 59.1436 45.1531 59.1436Z" fill="#CBCED6" stroke="#CBCED6" stroke-width="0.5"/>
<path d="M70.173 80.4319C66.9566 80.4287 63.8729 79.1497 61.5986 76.8753C59.3243 74.601 58.0452 71.5173 58.042 68.3009C58.0452 65.0846 59.3243 62.0008 61.5986 59.7265C63.8729 57.4522 66.9566 56.1731 70.173 56.1699C73.3894 56.1731 76.4731 57.4522 78.7474 59.7265C81.0217 62.0008 82.3008 65.0846 82.304 68.3009C82.3008 71.5173 81.0217 74.601 78.7474 76.8753C76.4731 79.1497 73.3894 80.4287 70.173 80.4319ZM70.173 57.8629C67.4057 57.8664 64.7528 58.9672 62.796 60.924C60.8392 62.8807 59.7384 65.5337 59.735 68.3009C59.7374 71.0689 60.8377 73.7229 62.7946 75.6805C64.7515 77.6381 67.405 78.7395 70.173 78.7429C72.9403 78.7395 75.5932 77.6387 77.55 75.6819C79.5067 73.7252 80.6075 71.0722 80.611 68.3049C80.6086 65.537 79.5083 62.883 77.5514 60.9254C75.5945 58.9677 72.941 57.8664 70.173 57.8629Z" fill="#CBCED6" stroke="#CBCED6" stroke-width="0.5"/>
<path d="M77.8369 67.179H75.6479L76.4719 63.887C76.5233 63.6799 76.4905 63.4609 76.3807 63.2779C76.2708 63.0949 76.0929 62.963 75.8859 62.911C75.6788 62.8602 75.46 62.8932 75.2772 63.003C75.0943 63.1127 74.9623 63.2903 74.9099 63.497L73.9889 67.18H72.0279L71.1069 63.497C71.0465 63.3388 70.9395 63.2027 70.8 63.1067C70.6606 63.0107 70.4952 62.9593 70.3259 62.9593C70.1566 62.9593 69.9912 63.0107 69.8518 63.1067C69.7123 63.2027 69.6053 63.3388 69.5449 63.497L68.6239 67.18H66.6629L65.7419 63.497C65.689 63.2906 65.5569 63.1133 65.3742 63.0037C65.1915 62.894 64.973 62.8607 64.7659 62.911C64.5589 62.963 64.381 63.0949 64.2711 63.2779C64.1613 63.4609 64.1285 63.6799 64.1799 63.887L65.0039 67.179H62.8149C62.6031 67.1804 62.4004 67.2651 62.2507 67.4148C62.1009 67.5646 62.0162 67.7673 62.0149 67.979C62.0162 68.1908 62.1009 68.3935 62.2507 68.5433C62.4004 68.693 62.6031 68.7777 62.8149 68.779H65.4049L66.8619 74.608C66.9223 74.7662 67.0293 74.9023 67.1688 74.9984C67.3082 75.0944 67.4736 75.1458 67.6429 75.1458C67.8122 75.1458 67.9776 75.0944 68.117 74.9984C68.2565 74.9023 68.3635 74.7662 68.4239 74.608L69.8809 68.779H70.7689L72.2259 74.608C72.2697 74.782 72.3704 74.9363 72.5118 75.0466C72.6533 75.157 72.8275 75.2169 73.0069 75.217C73.1863 75.2169 73.3605 75.157 73.502 75.0466C73.6434 74.9363 73.744 74.782 73.7879 74.608L75.2449 68.779H77.8349C78.0467 68.7777 78.2494 68.693 78.3991 68.5433C78.5489 68.3935 78.6336 68.1908 78.6349 67.979C78.6336 67.7676 78.5492 67.5652 78.3998 67.4155C78.2505 67.2658 78.0483 67.1809 77.8369 67.179ZM67.6429 71.104L67.0639 68.788H68.2229L67.6429 71.104ZM70.2829 67.179L70.3259 67.009L70.3689 67.179H70.2829ZM73.0079 71.104L72.4289 68.788H73.5849L73.0079 71.104Z" fill="#CBCED6" stroke="#CBCED6" stroke-width="0.5"/>
<path d="M91 37C93.2091 37 95 35.2091 95 33C95 30.7909 93.2091 29 91 29C88.7909 29 87 30.7909 87 33C87 35.2091 88.7909 37 91 37Z" stroke="#CBCED6" stroke-width="2"/>
<path d="M21 24C22.6569 24 24 22.6569 24 21C24 19.3431 22.6569 18 21 18C19.3431 18 18 19.3431 18 21C18 22.6569 19.3431 24 21 24Z" stroke="#CBCED6" stroke-width="2"/>
<path d="M72.053 10.4111V16.7191" stroke="#CBCED6" stroke-width="2" stroke-linecap="round" stroke-linejoin="round"/>
<path d="M75.2069 13.5654H68.8989" stroke="#CBCED6" stroke-width="2" stroke-linecap="round" stroke-linejoin="round"/>
<path d="M9.59033 43.6006L5.1299 48.061" stroke="#CBCED6" stroke-width="2" stroke-linecap="round" stroke-linejoin="round"/>
<path d="M9.59031 48.061L5.12988 43.6006" stroke="#CBCED6" stroke-width="2" stroke-linecap="round" stroke-linejoin="round"/>
</svg>
