<svg width="100" height="100" viewBox="0 0 100 100" fill="none" xmlns="http://www.w3.org/2000/svg">
<path d="M79 35C80.1046 35 81 34.1046 81 33C81 31.8954 80.1046 31 79 31C77.8954 31 77 31.8954 77 33C77 34.1046 77.8954 35 79 35Z" stroke="white" stroke-width="2"/>
<path d="M27.5 31C29.433 31 31 29.433 31 27.5C31 25.567 29.433 24 27.5 24C25.567 24 24 25.567 24 27.5C24 29.433 25.567 31 27.5 31Z" stroke="white" stroke-width="2"/>
<path d="M16.692 49.3398H23" stroke="white" stroke-width="2" stroke-linecap="round" stroke-linejoin="round"/>
<path d="M19.8459 52.4935V46.1855" stroke="white" stroke-width="2" stroke-linecap="round" stroke-linejoin="round"/>
<path d="M67.6083 18.3091L72.0687 22.7695" stroke="white" stroke-width="2" stroke-linecap="round" stroke-linejoin="round"/>
<path d="M67.6083 22.769L72.0687 18.3086" stroke="white" stroke-width="2" stroke-linecap="round" stroke-linejoin="round"/>
<path d="M50.8768 52.198C48.3889 52.198 45.9569 51.4603 43.8883 50.0781C41.8197 48.6959 40.2075 46.7313 39.2554 44.4328C38.3033 42.1343 38.0542 39.6051 38.5396 37.165C39.0249 34.7249 40.223 32.4835 41.9822 30.7243C43.7414 28.9651 45.9828 27.7671 48.4229 27.2817C50.8629 26.7964 53.3922 27.0455 55.6907 27.9976C57.9892 28.9496 59.9537 30.5619 61.3359 32.6305C62.7181 34.6991 63.4558 37.1311 63.4558 39.619C63.4518 42.954 62.1254 46.1512 59.7672 48.5093C57.4091 50.8675 54.2118 52.194 50.8768 52.198ZM50.8768 29.328C48.8413 29.328 46.8515 29.9316 45.1589 31.0625C43.4664 32.1934 42.1473 33.8008 41.3683 35.6815C40.5893 37.5621 40.3855 39.6314 40.7826 41.6279C41.1797 43.6243 42.16 45.4582 43.5994 46.8976C45.0387 48.337 46.8726 49.3171 48.869 49.7142C50.8655 50.1114 52.9348 49.9076 54.8154 49.1286C56.6961 48.3496 58.3034 47.0305 59.4343 45.338C60.5652 43.6454 61.1688 41.6556 61.1688 39.62C61.1667 36.891 60.0818 34.2745 58.1521 32.3448C56.2224 30.4151 53.6058 29.3301 50.8768 29.328Z" fill="white"/>
<path d="M65.6701 71.6377H36.084C33.921 71.6377 32.384 69.9267 32.084 67.1757C31.423 61.2067 34.934 55.0317 41.031 51.4427C41.2924 51.2886 41.6043 51.2447 41.8981 51.3205C42.1919 51.3964 42.4434 51.5858 42.5975 51.8472C42.7516 52.1086 42.7956 52.4205 42.7197 52.7143C42.6439 53.008 42.4544 53.2596 42.193 53.4137C38.151 55.7927 33.676 60.7577 34.358 66.9207C34.458 67.8287 34.817 69.3497 36.089 69.3497H65.6741C65.9551 69.3497 66.818 69.3497 67.213 67.9337C68.748 62.4817 64.7131 56.6177 59.9451 53.6397C59.6974 53.4751 59.5236 53.2204 59.4606 52.9298C59.3976 52.6391 59.4504 52.3353 59.6078 52.083C59.7651 51.8306 60.0146 51.6495 60.3034 51.5781C60.5921 51.5068 60.8972 51.5507 61.1541 51.7007C66.4811 55.0217 71.338 61.7137 69.415 68.5517C69.2402 69.418 68.7725 70.1977 68.0905 70.7597C67.4084 71.3217 66.5538 71.6317 65.6701 71.6377Z" fill="white"/>
<path d="M75.7703 60.7095L80.2307 65.1699" stroke="white" stroke-width="2" stroke-linecap="round" stroke-linejoin="round"/>
<path d="M75.7703 65.1694L80.2307 60.709" stroke="white" stroke-width="2" stroke-linecap="round" stroke-linejoin="round"/>
</svg>
