<svg width="100" height="100" viewBox="0 0 100 100" fill="none" xmlns="http://www.w3.org/2000/svg">
<path d="M71.2336 46.2848C71.0633 46.2066 70.8789 46.166 70.6924 46.1657C70.6234 46.1737 70.5552 46.1877 70.4886 46.2076C70.2473 46.1942 70.0207 46.1304 69.7761 46.1304H63.6755V42.398C63.6755 42.0275 63.5327 41.6722 63.2783 41.4101C63.024 41.1479 62.679 41.0004 62.3191 41H17.96C17.5997 41 17.2541 41.1472 16.9992 41.4094C16.7442 41.6715 16.6008 42.0271 16.6003 42.398V65.2559C16.6008 65.6268 16.7442 65.9824 16.9992 66.2445C17.2541 66.5066 17.5997 66.6539 17.96 66.6539H21.2027V75.4647C21.2031 75.8357 21.3466 76.1912 21.6015 76.4534C21.8565 76.7155 22.2021 76.8627 22.5624 76.8627H25.5948C25.9053 78.3803 26.7133 79.7418 27.8833 80.719C29.0533 81.6961 30.514 82.2293 32.0206 82.2293C33.5272 82.2293 34.988 81.6961 36.1579 80.719C37.3279 79.7418 38.1359 78.3803 38.4465 76.8627H66.4878C66.7983 78.3799 67.6061 79.741 68.7758 80.7179C69.9455 81.6947 71.4058 82.2278 72.912 82.2278C74.4182 82.2278 75.8786 81.6947 77.0483 80.7179C78.2179 79.741 79.0258 78.3799 79.3363 76.8627H82.3849C82.7451 76.8627 83.0905 76.7154 83.3452 76.4533C83.5999 76.1911 83.743 75.8355 83.743 75.4647V60.5081C83.7326 56.9666 82.4496 53.5542 80.1413 50.9282C77.8329 48.3022 74.6623 46.6483 71.2401 46.2848H71.2336ZM72.9096 71.4923C73.6724 71.4913 74.4184 71.7233 75.0532 72.1589C75.6879 72.5945 76.1829 73.2141 76.4754 73.9394C76.7679 74.6646 76.8449 75.4629 76.6965 76.2332C76.5482 77.0035 76.1812 77.7112 75.642 78.2668C75.1028 78.8223 74.4156 79.2007 73.6675 79.354C72.9193 79.5074 72.1438 79.4289 71.439 79.1283C70.7342 78.8278 70.1318 78.3188 69.7081 77.6658C69.2845 77.0127 69.0585 76.245 69.0588 75.4597C69.0601 74.4085 69.4661 73.4006 70.1879 72.657C70.9097 71.9133 71.8884 71.4945 72.9096 71.4923ZM72.9096 68.698C71.4046 68.7007 69.946 69.2347 68.7773 70.2108C67.6086 71.187 66.8004 72.5462 66.4878 74.0617H38.4465C38.1351 72.5442 37.3265 71.1829 36.1562 70.206C34.9858 69.2292 33.5249 68.6961 32.0182 68.6961C30.5115 68.6961 29.0505 69.2292 27.8802 70.206C26.7099 71.1829 25.9012 72.5442 25.5899 74.0617H23.9204V66.6522H62.3191C62.6793 66.6522 63.0247 66.5049 63.2794 66.2427C63.5341 65.9806 63.6771 65.625 63.6771 65.2542V48.9281H69.3327V62.0924C69.3331 62.4633 69.4766 62.8189 69.7315 63.081C69.9865 63.3431 70.332 63.4904 70.6924 63.4904H81.0236V74.0634H79.3346C79.0213 72.5461 78.2121 71.1853 77.042 70.208C75.8718 69.2307 74.4115 68.6959 72.9047 68.693L72.9096 68.698ZM32.0198 79.4321C31.2572 79.4321 30.5118 79.1994 29.8777 78.7632C29.2436 78.3271 28.7494 77.7072 28.4576 76.982C28.1658 76.2567 28.0894 75.4587 28.2382 74.6887C28.387 73.9188 28.7542 73.2116 29.2934 72.6565C29.8327 72.1014 30.5197 71.7234 31.2676 71.5702C32.0155 71.4171 32.7908 71.4957 33.4953 71.7961C34.1998 72.0965 34.802 72.6052 35.2257 73.258C35.6494 73.9107 35.8755 74.678 35.8755 75.4631C35.8742 76.5153 35.4676 77.5241 34.7448 78.2682C34.022 79.0122 33.042 79.4308 32.0198 79.4321ZM59.0112 63.8545H22.564H22.551H19.3181V43.7977H60.961V47.5033V47.5318V47.557V63.8545H59.0259H59.0128H59.0112ZM81.022 60.6994H72.0553V49.1681C74.5871 49.712 76.8601 51.1358 78.4928 53.2007C80.1255 55.2655 81.0185 57.8457 81.022 60.5081V60.6994Z" fill="#CBCED6"/>
<path d="M86.5 40C88.433 40 90 38.433 90 36.5C90 34.567 88.433 33 86.5 33C84.567 33 83 34.567 83 36.5C83 38.433 84.567 40 86.5 40Z" stroke="#CBCED6" stroke-width="2"/>
<path d="M33.5 18C34.8807 18 36 16.8807 36 15.5C36 14.1193 34.8807 13 33.5 13C32.1193 13 31 14.1193 31 15.5C31 16.8807 32.1193 18 33.5 18Z" stroke="#CBCED6" stroke-width="2"/>
<path d="M56.844 24V29.688" stroke="#CBCED6" stroke-width="2" stroke-linecap="round" stroke-linejoin="round"/>
<path d="M59.688 26.8442H54" stroke="#CBCED6" stroke-width="2" stroke-linecap="round" stroke-linejoin="round"/>
<path d="M11.844 30V35.688" stroke="#CBCED6" stroke-width="2" stroke-linecap="round" stroke-linejoin="round"/>
<path d="M14.688 32.8438H9" stroke="#CBCED6" stroke-width="2" stroke-linecap="round" stroke-linejoin="round"/>
</svg>
