<svg width="10" height="10" viewBox="0 0 10 10" fill="none" xmlns="http://www.w3.org/2000/svg">
<path d="M5.15199 8.54134L7.72557 9.95997C7.78048 9.99022 7.84236 10.0038 7.90424 9.99909C7.96611 9.99441 8.0255 9.97167 8.07569 9.93347C8.12588 9.89526 8.16487 9.84311 8.18825 9.78289C8.21164 9.72268 8.21848 9.65679 8.20801 9.59271L7.71905 6.58893C7.70992 6.53329 7.71383 6.47615 7.73043 6.42244C7.74704 6.36874 7.77586 6.32007 7.8144 6.28062L9.89657 4.1531C9.94198 4.10787 9.97427 4.05012 9.98973 3.98649C10.0052 3.92286 10.0032 3.85595 9.98392 3.79347C9.96467 3.73098 9.92897 3.67547 9.88093 3.63333C9.83289 3.59118 9.77447 3.56412 9.71239 3.55525L6.83484 3.11711C6.78153 3.10898 6.73091 3.08739 6.68733 3.05422C6.64375 3.02104 6.60851 2.97727 6.58465 2.92666L5.29786 0.193619C5.27034 0.135479 5.22787 0.0865444 5.17525 0.0523372C5.12262 0.0181299 5.06193 0 5 0C4.93808 0 4.87738 0.0181299 4.82475 0.0523372C4.77213 0.0865444 4.72966 0.135479 4.70214 0.193619L3.41535 2.92666C3.39149 2.97727 3.35625 3.02104 3.31267 3.05422C3.26909 3.08739 3.21847 3.10898 3.16516 3.11711L0.28761 3.55525C0.225534 3.56412 0.167109 3.59118 0.119069 3.63333C0.0710295 3.67547 0.0353308 3.73098 0.0160824 3.79347C-0.00316613 3.85595 -0.00517927 3.92286 0.0102752 3.98649C0.0257297 4.05012 0.0580212 4.10787 0.103432 4.1531L2.1856 6.28062C2.22414 6.32007 2.25296 6.36874 2.26957 6.42244C2.28617 6.47615 2.29008 6.53329 2.28095 6.58893L1.79199 9.59271C1.78152 9.65679 1.78836 9.72268 1.81175 9.78289C1.83513 9.84311 1.87412 9.89526 1.92431 9.93347C1.9745 9.97167 2.03389 9.99441 2.09576 9.99909C2.15764 10.0038 2.21953 9.99022 2.27443 9.95997L4.84801 8.54134C4.89503 8.51602 4.94714 8.50281 5 8.50281C5.05287 8.50281 5.10497 8.51602 5.15199 8.54134Z" fill="#CBCED6"/>
</svg>
 