<svg width="39" height="30" viewBox="0 0 39 30" fill="none" xmlns="http://www.w3.org/2000/svg">
<path d="M20.7675 25.4602H3.36755C2.65648 25.4594 1.97476 25.1766 1.47196 24.6738C0.969161 24.171 0.686341 23.4893 0.685547 22.7782V3.50621C0.686077 2.79506 0.968814 2.11319 1.47167 1.61034C1.97453 1.10748 2.6564 0.824748 3.36755 0.824219H33.4675C34.1787 0.824748 34.8606 1.10748 35.3634 1.61034C35.8663 2.11319 36.149 2.79506 36.1495 3.50621V12.2852C36.1495 12.3674 36.1333 12.4487 36.1019 12.5246C36.0704 12.6005 36.0243 12.6695 35.9661 12.7275C35.908 12.7856 35.839 12.8316 35.763 12.8629C35.6871 12.8943 35.6057 12.9103 35.5235 12.9102C35.3578 12.9102 35.1988 12.8444 35.0816 12.7272C34.9644 12.6099 34.8985 12.451 34.8985 12.2852V3.50621C34.898 3.12694 34.7471 2.76338 34.4788 2.49529C34.2105 2.22719 33.8468 2.07648 33.4675 2.07622H3.36755C2.98828 2.07648 2.6246 2.22719 2.35632 2.49529C2.08804 2.76338 1.93708 3.12694 1.93655 3.50621V22.7792C1.93708 23.1584 2.08808 23.5219 2.35638 23.7898C2.62469 24.0577 2.98837 24.2082 3.36755 24.2082H20.7675C20.9335 24.2085 21.0926 24.2745 21.2099 24.3918C21.3272 24.5092 21.3933 24.6683 21.3935 24.8342C21.3935 24.9164 21.3774 24.9978 21.3459 25.0738C21.3144 25.1497 21.2683 25.2187 21.2102 25.2769C21.1521 25.335 21.0831 25.3811 21.0071 25.4126C20.9312 25.444 20.8498 25.4602 20.7675 25.4602Z" fill="#1A1A1A" stroke="#1A1A1A" stroke-width="0.5"/>
<path d="M35.5156 12.036H1.30957C1.14363 12.0355 0.984661 11.9692 0.867508 11.8517C0.750355 11.7341 0.684569 11.575 0.68457 11.409V6.64502C0.68457 6.47926 0.75042 6.32029 0.86763 6.20308C0.98484 6.08587 1.14381 6.02002 1.30957 6.02002H35.5156C35.5977 6.01989 35.6791 6.03596 35.7551 6.06731C35.831 6.09866 35.9 6.14468 35.9582 6.20273C36.0163 6.26078 36.0624 6.32972 36.0939 6.40561C36.1254 6.4815 36.1416 6.56286 36.1416 6.64502V11.409C36.1416 11.5751 36.0757 11.7345 35.9583 11.852C35.8409 11.9696 35.6817 12.0358 35.5156 12.036ZM1.93157 10.783H34.8916V7.27202H1.93557L1.93157 10.783Z" fill="#1A1A1A" stroke="#1A1A1A" stroke-width="0.5"/>
<path d="M15.1752 16.312H4.1582C4.07604 16.312 3.99469 16.2958 3.9188 16.2644C3.8429 16.2329 3.77396 16.1868 3.71591 16.1286C3.65786 16.0705 3.61184 16.0015 3.58049 15.9255C3.54914 15.8496 3.53307 15.7682 3.5332 15.686C3.5332 15.5203 3.59905 15.3613 3.71626 15.2441C3.83347 15.1269 3.99244 15.061 4.1582 15.061H15.1752C15.2574 15.0609 15.3387 15.077 15.4147 15.1083C15.4906 15.1397 15.5597 15.1857 15.6178 15.2437C15.6759 15.3018 15.7221 15.3707 15.7535 15.4466C15.785 15.5225 15.8012 15.6039 15.8012 15.686C15.8012 15.8521 15.7352 16.0113 15.6179 16.1287C15.5005 16.2461 15.3412 16.312 15.1752 16.312Z" fill="#1A1A1A" stroke="#1A1A1A" stroke-width="0.5"/>
<path d="M30.8432 29.6443C28.8275 29.6443 26.8944 28.8436 25.4692 27.4183C24.0439 25.9931 23.2432 24.06 23.2432 22.0443C23.2432 20.0287 24.0439 18.0956 25.4692 16.6703C26.8944 15.245 28.8275 14.4443 30.8432 14.4443C32.8588 14.4443 34.7919 15.245 36.2172 16.6703C37.6425 18.0956 38.4432 20.0287 38.4432 22.0443C38.4432 24.06 37.6425 25.9931 36.2172 27.4183C34.7919 28.8436 32.8588 29.6443 30.8432 29.6443ZM30.8432 15.5113C29.1104 15.5134 27.4491 16.2027 26.2239 17.428C24.9986 18.6533 24.3093 20.3145 24.3072 22.0473C24.3093 23.7801 24.9986 25.4413 26.2239 26.6666C27.4491 27.8919 29.1104 28.5812 30.8432 28.5833C32.5759 28.581 34.237 27.8916 35.4622 26.6664C36.6874 25.4411 37.3768 23.7801 37.3792 22.0473C37.3768 20.3146 36.6874 18.6535 35.4622 17.4283C34.237 16.2031 32.5759 15.5137 30.8432 15.5113Z" fill="#1A1A1A" stroke="#1A1A1A" stroke-width="0.5"/>
<path d="M35.6423 21.3453H34.2713L34.7873 19.2833C34.8039 19.2191 34.8075 19.1522 34.798 19.0865C34.7885 19.0209 34.766 18.9578 34.7318 18.9009C34.6976 18.844 34.6525 18.7945 34.599 18.7553C34.5456 18.716 34.4848 18.6878 34.4203 18.6723C34.2907 18.6405 34.1537 18.6612 34.0392 18.7299C33.9248 18.7987 33.8422 18.9099 33.8093 19.0393L33.2323 21.3453H32.0063L31.4293 19.0393C31.3913 18.9405 31.3242 18.8555 31.2369 18.7956C31.1496 18.7357 31.0462 18.7036 30.9403 18.7036C30.8344 18.7036 30.731 18.7357 30.6438 18.7956C30.5565 18.8555 30.4894 18.9405 30.4513 19.0393L29.8743 21.3453H28.6463L28.0693 19.0393C28.0363 18.91 27.9536 18.799 27.8392 18.7303C27.7248 18.6616 27.588 18.6408 27.4583 18.6723C27.3938 18.6878 27.3331 18.716 27.2796 18.7553C27.2261 18.7945 27.181 18.844 27.1469 18.9009C27.1127 18.9578 27.0902 19.0209 27.0807 19.0865C27.0711 19.1522 27.0748 19.2191 27.0913 19.2833L27.6073 21.3453H26.2363C26.1037 21.3453 25.9765 21.398 25.8828 21.4917C25.789 21.5855 25.7363 21.7127 25.7363 21.8453C25.7363 21.9779 25.789 22.1051 25.8828 22.1988C25.9765 22.2926 26.1037 22.3453 26.2363 22.3453H27.8583L28.7703 25.9953C28.8084 26.0941 28.8755 26.1791 28.9628 26.239C29.05 26.2989 29.1534 26.331 29.2593 26.331C29.3652 26.331 29.4686 26.2989 29.5559 26.239C29.6432 26.1791 29.7103 26.0941 29.7483 25.9953L30.6603 22.3453H31.2163L32.1283 25.9953C32.1549 26.1047 32.2176 26.202 32.3064 26.2713C32.3952 26.3407 32.5047 26.378 32.6173 26.3773C32.7299 26.378 32.8395 26.3407 32.9283 26.2713C33.017 26.202 33.0798 26.1047 33.1063 25.9953L34.0183 22.3453H35.6403C35.7729 22.3453 35.9001 22.2926 35.9939 22.1988C36.0876 22.1051 36.1403 21.9779 36.1403 21.8453C36.1403 21.713 36.0879 21.5862 35.9946 21.4924C35.9013 21.3987 35.7746 21.3458 35.6423 21.3453ZM29.2593 23.8033L28.8963 22.3533H29.6223L29.2593 23.8033ZM30.9123 21.3453L30.9393 21.2393L30.9663 21.3453H30.9123ZM32.6193 23.8033L32.2563 22.3533H32.9823L32.6193 23.8033Z" fill="#1A1A1A" stroke="#1A1A1A" stroke-width="0.5"/>
</svg>
