<svg width="62" height="47" viewBox="0 0 62 47" fill="none" xmlns="http://www.w3.org/2000/svg">
<path d="M33.0827 39.7512H5.29472C4.15938 39.7498 3.0709 39.2983 2.268 38.4956C1.46509 37.6929 1.01331 36.6045 1.01172 35.4691V4.69215C1.01304 3.55673 1.46474 2.46821 2.2677 1.66544C3.07066 0.862663 4.1593 0.411215 5.29472 0.410156H53.3587C54.4944 0.410686 55.5834 0.861921 56.3867 1.66478C57.1899 2.46764 57.6417 3.55648 57.6427 4.69215V18.7122C57.6427 18.9774 57.5374 19.2317 57.3498 19.4193C57.1623 19.6068 56.9079 19.7122 56.6427 19.7122C56.3775 19.7122 56.1231 19.6068 55.9356 19.4193C55.7481 19.2317 55.6427 18.9774 55.6427 18.7122V4.69215C55.6419 4.08664 55.401 3.50616 54.9729 3.078C54.5447 2.64984 53.9642 2.40895 53.3587 2.40816H5.29472C4.68921 2.40895 4.10873 2.64984 3.68056 3.078C3.2524 3.50616 3.01151 4.08664 3.01072 4.69215V35.4681C3.01151 36.0735 3.25247 36.6538 3.68069 37.0816C4.10891 37.5094 4.68939 37.7499 5.29472 37.7502H33.0827C33.3479 37.7502 33.6023 37.8555 33.7898 38.043C33.9774 38.2306 34.0827 38.4849 34.0827 38.7502C34.0828 38.8816 34.0571 39.0117 34.0069 39.1331C33.9567 39.2546 33.8831 39.365 33.7902 39.4579C33.6973 39.5509 33.587 39.6246 33.4656 39.6749C33.3442 39.7252 33.2141 39.7512 33.0827 39.7512Z" fill="#FF710B" stroke="#FF710B" stroke-width="0.5"/>
<path d="M56.6428 18.3141H2.00977C1.74455 18.3141 1.49019 18.2087 1.30266 18.0212C1.11512 17.8336 1.00977 17.5793 1.00977 17.3141V9.70605C1.00977 9.44084 1.11512 9.18648 1.30266 8.99895C1.49019 8.81141 1.74455 8.70605 2.00977 8.70605H56.6428C56.908 8.70605 57.1623 8.81141 57.3499 8.99895C57.5374 9.18648 57.6428 9.44084 57.6428 9.70605V17.3141C57.6428 17.5793 57.5374 17.8336 57.3499 18.0212C57.1623 18.2087 56.908 18.3141 56.6428 18.3141ZM3.01176 16.3141H55.6428V10.7061H3.00977L3.01176 16.3141Z" fill="#FF710B" stroke="#FF710B" stroke-width="0.5"/>
<path d="M24.1526 25.1431H6.55957C6.42825 25.1431 6.29821 25.1172 6.17689 25.0669C6.05556 25.0167 5.94532 24.943 5.85246 24.8502C5.7596 24.7573 5.68594 24.6471 5.63569 24.5257C5.58543 24.4044 5.55957 24.2744 5.55957 24.1431C5.55957 23.8778 5.66493 23.6235 5.85246 23.436C6.04 23.2484 6.29435 23.1431 6.55957 23.1431H24.1526C24.4178 23.1431 24.6721 23.2484 24.8597 23.436C25.0472 23.6235 25.1526 23.8778 25.1526 24.1431C25.1526 24.4083 25.0472 24.6626 24.8597 24.8502C24.6721 25.0377 24.4178 25.1431 24.1526 25.1431Z" fill="#FF710B" stroke="#FF710B" stroke-width="0.5"/>
<path d="M49.173 46.4319C45.9566 46.4287 42.8729 45.1497 40.5986 42.8753C38.3243 40.601 37.0452 37.5173 37.042 34.3009C37.0452 31.0846 38.3243 28.0008 40.5986 25.7265C42.8729 23.4522 45.9566 22.1731 49.173 22.1699C52.3894 22.1731 55.4731 23.4522 57.7474 25.7265C60.0217 28.0008 61.3008 31.0846 61.304 34.3009C61.3008 37.5173 60.0217 40.601 57.7474 42.8753C55.4731 45.1497 52.3894 46.4287 49.173 46.4319ZM49.173 23.8629C46.4057 23.8664 43.7528 24.9672 41.796 26.924C39.8392 28.8807 38.7384 31.5337 38.735 34.3009C38.7374 37.0689 39.8377 39.7229 41.7946 41.6805C43.7515 43.6381 46.405 44.7395 49.173 44.7429C51.9403 44.7395 54.5932 43.6387 56.55 41.6819C58.5067 39.7252 59.6075 37.0722 59.611 34.3049C59.6086 31.537 58.5083 28.883 56.5514 26.9254C54.5945 24.9677 51.941 23.8664 49.173 23.8629Z" fill="#FF710B" stroke="#FF710B" stroke-width="0.5"/>
<path d="M56.8366 33.179H54.6476L55.4716 29.887C55.5231 29.6799 55.4903 29.4609 55.3804 29.2779C55.2706 29.0949 55.0926 28.963 54.8856 28.911C54.6786 28.8602 54.4598 28.8932 54.2769 29.003C54.0941 29.1127 53.9621 29.2903 53.9096 29.497L52.9886 33.18H51.0276L50.1066 29.497C50.0462 29.3388 49.9392 29.2027 49.7998 29.1067C49.6603 29.0107 49.495 28.9593 49.3256 28.9593C49.1563 28.9593 48.991 29.0107 48.8515 29.1067C48.7121 29.2027 48.605 29.3388 48.5446 29.497L47.6236 33.18H45.6626L44.7416 29.497C44.6887 29.2906 44.5566 29.1133 44.374 29.0037C44.1913 28.894 43.9727 28.8607 43.7656 28.911C43.5587 28.963 43.3807 29.0949 43.2709 29.2779C43.161 29.4609 43.1282 29.6799 43.1796 29.887L44.0036 33.179H41.8146C41.6029 33.1804 41.4002 33.2651 41.2504 33.4148C41.1007 33.5646 41.016 33.7673 41.0146 33.979C41.016 34.1908 41.1007 34.3935 41.2504 34.5433C41.4002 34.693 41.6029 34.7777 41.8146 34.779H44.4046L45.8616 40.608C45.9221 40.7662 46.0291 40.9023 46.1685 40.9984C46.308 41.0944 46.4733 41.1458 46.6426 41.1458C46.812 41.1458 46.9773 41.0944 47.1168 40.9984C47.2562 40.9023 47.3632 40.7662 47.4236 40.608L48.8806 34.779H49.7686L51.2256 40.608C51.2695 40.782 51.3701 40.9363 51.5116 41.0466C51.653 41.157 51.8273 41.2169 52.0066 41.217C52.186 41.2169 52.3603 41.157 52.5017 41.0466C52.6432 40.9363 52.7438 40.782 52.7876 40.608L54.2446 34.779H56.8346C57.0464 34.7777 57.2491 34.693 57.3989 34.5433C57.5486 34.3935 57.6333 34.1908 57.6346 33.979C57.6333 33.7676 57.5489 33.5652 57.3996 33.4155C57.2503 33.2658 57.0481 33.1809 56.8366 33.179ZM46.6426 37.104L46.0636 34.788H47.2226L46.6426 37.104ZM49.2826 33.179L49.3256 33.009L49.3686 33.179H49.2826ZM52.0076 37.104L51.4286 34.788H52.5846L52.0076 37.104Z" fill="#FF710B" stroke="#FF710B" stroke-width="0.5"/>
</svg>
