<svg width="120" height="16" viewBox="0 0 120 16" fill="none" xmlns="http://www.w3.org/2000/svg">
<g clip-path="url(#clip0_8842_524)">
<path d="M0 0H6.02436V16.4834H0.111124L0 0Z" fill="#FF710B"/>
<path d="M7.53125 0H12.5357L19.0535 9.13404V0H24.0982V16.4834H19.0535L12.576 7.44539V16.4834H7.53125V0Z" fill="#FF710B"/>
<path fill-rule="evenodd" clip-rule="evenodd" d="M110.578 9.78771C113.391 9.08541 116.283 8.7298 119.187 8.7292C119.523 8.7166 119.793 8.57165 120 8.35463V16.3376H115.024C116.276 15.9025 117.51 15.4158 118.722 14.8786C118.926 14.7866 119.097 14.6359 119.21 14.4467C119.324 14.2575 119.376 14.0388 119.359 13.8201C119.359 13.0304 118.653 11.8039 117.74 11.8039C117.657 11.777 117.566 11.777 117.482 11.8039C115.313 12.8811 112.992 13.6398 110.595 14.0553C110.582 13.6803 110.562 13.3101 110.542 12.9411C110.508 12.3347 110.475 11.7313 110.475 11.115C110.458 10.6702 110.492 10.2249 110.578 9.78771ZM107.681 16.3376H98.6953C99.3659 15.9784 100.007 15.5645 100.612 15.099C102.386 13.7328 103.79 11.9637 104.702 9.946C104.985 9.31822 105.127 8.63856 105.118 7.95283C105.118 6.93935 104.72 6.11163 103.56 6.11163C103.396 6.11163 103.231 6.13275 103.067 6.15387C102.902 6.17499 102.738 6.19612 102.573 6.19612C100.721 6.36503 98.8694 6.51706 97.0174 6.51706C95.7827 6.51447 94.55 6.41844 93.3306 6.22988C94.0798 5.34547 95.0007 4.61419 96.0403 4.07794C97.0799 3.54169 98.2178 3.21101 99.3887 3.10497H100.86C101.812 3.10497 102.833 2.98673 102.833 1.83811C102.836 1.32038 102.67 0.815187 102.359 0.395946C102.251 0.250315 102.127 0.117699 101.991 0H115.337C115.157 1.09654e-06 114.977 0.00307219 114.796 0.00921893C112.748 0.00921893 110.664 0.126852 108.615 0.294867C107.789 0.362073 107.445 1.7062 107.445 2.34465C107.417 2.83392 107.569 3.31672 107.875 3.70557V6.34342C107.634 6.34224 107.395 6.39055 107.174 6.48529C106.953 6.58004 106.755 6.71906 106.592 6.89333C106.43 7.06761 106.307 7.27323 106.231 7.49688C106.156 7.72053 106.129 7.95725 106.153 8.19159C106.14 8.57091 106.259 8.94342 106.49 9.24851C106.721 9.5536 107.052 9.77329 107.427 9.87175C107.367 10.9814 107.43 12.0969 107.493 13.208C107.538 13.9979 107.582 14.7855 107.582 15.5674C107.593 15.839 107.625 16.0979 107.681 16.3376ZM115.337 0C116.235 5.45979e-06 117.131 0.07612 118.016 0.227647C118.722 0.395662 118.894 1.33655 118.894 1.9078C118.894 2.47905 118.584 3.73915 117.947 3.73915C117.155 3.73915 116.372 3.63835 115.588 3.53754C114.805 3.43674 114.022 3.33594 113.23 3.33594C112.46 3.32745 111.7 3.49431 111.009 3.82319C110.918 4.07139 110.872 4.33269 110.871 4.59605C110.906 5.07148 110.906 5.54876 110.871 6.02419C111.551 5.97466 112.228 5.9149 112.904 5.85526C114.521 5.71258 116.131 5.57051 117.758 5.57051C118.025 5.57051 118.287 5.52852 118.55 5.48653C118.812 5.44453 119.075 5.40254 119.342 5.40254C119.616 5.40254 119.832 5.47502 120 5.59779V0H115.337ZM87.4848 16.3376H91.9195C91.7401 15.9899 91.6343 15.631 91.6343 15.3174C91.6297 15.146 91.6603 14.9754 91.7243 14.8158C91.7883 14.6561 91.8845 14.5106 92.0071 14.3878C92.1297 14.265 92.2763 14.1674 92.4382 14.1007C92.6001 14.0341 92.7741 13.9999 92.9498 13.9999C95.2253 13.903 97.4218 13.1572 99.2675 11.8547C99.9325 11.36 100.423 10.675 100.67 9.89533H98.6271C96.7231 9.89533 94.8018 10.0304 92.8979 10.1994H92.2574C91.6689 10.1994 89.8515 10.0642 89.5572 9.45614C89.3281 8.95074 89.2102 8.40412 89.2111 7.85149C89.3446 7.00513 89.6489 6.19302 90.1065 5.46232C90.5641 4.73163 91.1658 4.09687 91.8766 3.59483C93.3729 1.89243 95.3213 0.654498 97.4823 0H73.2936L73.1805 0.111217C73.1805 3.5199 73.0765 6.9286 72.9552 10.4566C72.9492 12.0843 72.3975 13.6647 71.3854 14.9527C70.9725 15.4782 70.4924 15.9431 69.9599 16.3376H75.6225C75.6439 15.8952 75.6917 15.4531 75.7393 15.0122L75.7393 15.0121C75.803 14.4223 75.8665 13.8346 75.8665 13.2509C75.8665 12.2542 75.5465 11.9131 75.2645 11.6126C75.0424 11.3758 74.8439 11.1642 74.8439 10.6772C74.8818 9.93838 75.1899 9.23664 75.713 8.69742C75.713 8.37364 75.7346 8.05405 75.7561 7.73653V7.73649V7.73644C75.7773 7.423 75.7983 7.11157 75.7983 6.80014C75.7958 5.97903 75.7503 5.15858 75.6619 4.34193C75.4572 4.19275 75.2929 3.99772 75.183 3.7736C75.0732 3.54947 75.0211 3.30294 75.0313 3.05507C75.0512 2.4101 75.3191 1.79553 75.7825 1.3317C76.2459 0.867864 76.8714 0.588132 77.5367 0.54732H78.1332C81.4992 0.367039 84.8669 0.872885 88.0182 2.03215C88.3584 2.19839 88.6412 2.45705 88.8319 2.77645C89.0226 3.09584 89.113 3.46215 89.0919 3.83049C89.0919 5.77835 85.1088 8.05785 83.0878 9.21449C82.9006 9.32161 82.7302 9.41911 82.5814 9.50581C84.8908 10.2998 87.0245 11.5089 88.8704 13.0694C89.0983 13.3194 89.2201 13.6436 89.2113 13.9769C89.126 14.6863 88.4954 16.3361 87.4899 16.3361L87.4848 16.3376ZM87.2223 16.3376L87.2172 16.3361C86.7017 16.0213 86.2009 15.6922 85.7012 15.3638L85.7012 15.3638C85.127 14.9865 84.5543 14.6101 83.962 14.2573C82.7431 13.534 81.4796 12.8839 80.1784 12.3105C79.7892 12.1249 79.3669 12.0129 78.9342 11.9805H78.832C78.7073 13.1147 78.6787 14.257 78.7467 15.3957C78.7552 15.5495 78.7552 15.7037 78.7467 15.8576C78.7021 16.0235 78.6416 16.1841 78.5665 16.3376H87.2223ZM55.299 16.3376H62.2059C62.1084 16.1033 62.0543 15.8371 62.0543 15.5355C61.9964 14.6247 62.0158 13.691 62.0351 12.765C62.0447 12.3049 62.0543 11.8466 62.0543 11.394C62.0543 9.80073 62.0759 8.2117 62.0976 6.62268L62.0976 6.62184L62.0976 6.62101C62.1192 5.03198 62.1409 3.44296 62.1409 1.84968C62.1409 0.963421 63.2674 0.281661 64.0993 0.281661C64.2535 0.265557 64.4094 0.283618 64.5556 0.334454C64.7019 0.385289 64.8346 0.467631 64.9443 0.575479C65.054 0.683327 65.1378 0.81392 65.1894 0.957718C65.2411 1.10152 65.2595 1.25487 65.2431 1.40653V1.54291C65.2431 2.82969 65.1608 4.10794 65.0784 5.38618C64.9961 6.66443 64.9138 7.94268 64.9138 9.22946C64.8671 10.3685 64.9251 11.5094 65.0871 12.6381C65.2431 13.3369 65.555 13.9335 66.3696 13.9335C66.7712 13.9014 67.1612 13.7851 67.5134 13.5926C70.0263 12.3995 70.0783 11.019 70.0783 8.47954C70.0783 6.7752 69.9743 5.07086 69.8704 3.36652C69.8704 2.95106 69.8317 2.52717 69.7929 2.10114C69.7537 1.67078 69.7143 1.23824 69.7143 0.810003C69.7143 0.540428 69.8878 0.258918 70.1501 0H52.974H41.2598C41.4108 0 41.5619 0.00444656 41.7128 0.0133354C42.4678 0.130013 42.6692 1.14676 42.6692 1.76349C42.6692 2.38021 42.4008 3.43032 41.4947 3.43032H40.6892C39.7306 3.5124 38.7994 3.79046 37.9541 4.24705C36.5348 4.87634 35.2786 5.81901 34.2813 7.00326C33.2839 8.18751 32.5717 9.58215 32.1987 11.0811C32.1904 11.1865 32.1904 11.2924 32.1987 11.3978C32.1987 13.0646 34.3298 13.698 35.7225 13.698C37.534 13.698 39.6886 12.5648 40.9169 11.9187L40.9169 11.9187L40.9169 11.9187C41.4066 11.6612 41.749 11.4811 41.8638 11.4811C42.7867 11.4811 43.5418 12.6812 43.5418 13.5146C43.5168 14.7318 41.7651 15.6857 39.774 16.3376H47.2148C46.7043 16.0282 46.2355 15.6547 45.821 15.2253C44.7053 13.9683 44.0798 12.3665 44.0548 10.7026C44.1934 8.6046 44.796 6.56094 45.821 4.71261C46.5236 3.41179 47.5442 2.30086 48.7922 1.47868C50.0401 0.656497 51.4767 0.148529 52.974 0C54.8217 0.0902751 56.5797 0.806394 57.9462 2.0254C59.3126 3.2444 60.2023 4.89024 60.4625 6.68048C60.4794 6.92763 60.4794 7.17565 60.4625 7.4228C60.4417 9.31098 59.9053 11.1594 58.9085 12.777C58.0125 14.2312 56.7737 15.4513 55.299 16.3376ZM30.688 15.9331C30.8369 16.0778 30.9944 16.2128 31.1595 16.3376H29.6876V14.5588C29.9395 15.0693 30.2775 15.5342 30.688 15.9331ZM29.6876 0V9.77532C30.2588 7.96966 31.2272 6.30147 32.5343 4.89713C34.615 2.29688 37.2997 0.0133354 40.8067 0.0133354C40.9576 0.00444656 41.1086 0 41.2597 0H29.6876ZM52.3911 3.46973C53.9283 3.65303 55.3396 4.39196 56.3473 5.54117V5.61023C56.939 6.36663 57.2447 7.29975 57.2128 8.25135C57.2368 9.08523 57.0804 9.91469 56.7536 10.6853C56.2906 11.5478 55.6189 12.2865 54.797 12.8371C53.9751 13.3877 53.0279 13.7335 52.0379 13.8444C51.8504 13.8692 51.6602 13.8692 51.4727 13.8444C48.7528 13.3092 47.4458 12.1699 47.4458 9.35616C47.4271 8.54983 47.5737 7.74795 47.877 6.99788C48.1804 6.2478 48.6343 5.56471 49.212 4.98881C50.0251 4.09231 51.1679 3.54628 52.3911 3.46973ZM78.7467 4.16042C79.5753 3.98673 80.4214 3.90373 81.2691 3.91296V3.83049C81.8997 3.83049 84.6948 3.97893 84.8653 4.82034C84.8653 5.05797 83.6051 5.52064 83.0439 5.72667C82.9428 5.7638 82.8643 5.7926 82.8201 5.81024C81.5248 6.45367 80.1954 6.96511 78.866 7.46006C78.6938 6.88688 78.6133 6.29152 78.6275 5.69474C78.6248 5.18103 78.6646 4.66795 78.7467 4.16042Z" fill="#FF710B"/>
</g>
<defs>
<clipPath id="clip0_8842_524">
<rect width="120" height="16" fill="white"/>
</clipPath>
</defs>
</svg>
