<svg width="14" height="14" viewBox="0 0 14 14" fill="none" xmlns="http://www.w3.org/2000/svg">
<path d="M7.21696 11.9599L10.8214 13.9482C10.9004 13.9887 10.9892 14.006 11.0776 13.9981C11.166 13.9903 11.2504 13.9575 11.321 13.9036C11.3917 13.8498 11.4456 13.777 11.4767 13.6938C11.5078 13.6106 11.5147 13.5202 11.4967 13.4332L10.8082 9.22274C10.7954 9.1453 10.8008 9.06592 10.824 8.99095C10.8473 8.91597 10.8877 8.84748 10.9421 8.79093L13.858 5.81286C13.9207 5.74909 13.9649 5.6695 13.986 5.58255C14.0071 5.4956 14.0043 5.40455 13.9778 5.31908C13.9513 5.23362 13.9022 5.15694 13.8357 5.09721C13.7691 5.03748 13.6876 4.99694 13.5999 4.97989L9.56944 4.36675C9.49415 4.35479 9.42291 4.32461 9.36193 4.27882C9.30094 4.23302 9.25205 4.17301 9.2195 4.10399L7.41731 0.272796C7.38171 0.191673 7.32329 0.122686 7.24919 0.0742435C7.17509 0.0258012 7.0885 0 7 0C6.9115 0 6.82491 0.0258012 6.75081 0.0742435C6.67671 0.122686 6.61829 0.191673 6.58269 0.272796L4.7805 4.10399C4.74795 4.17301 4.69906 4.23302 4.63807 4.27882C4.57709 4.32461 4.50585 4.35479 4.43056 4.36675L0.400111 4.97989C0.312374 4.99694 0.230896 5.03748 0.164348 5.09721C0.0977995 5.15694 0.0486711 5.23362 0.022192 5.31908C-0.00428717 5.40455 -0.00712658 5.4956 0.0139755 5.58255C0.0350776 5.6695 0.0793312 5.74909 0.142028 5.81286L3.05791 8.79093C3.11229 8.84748 3.15272 8.91597 3.17596 8.99095C3.1992 9.06592 3.20461 9.1453 3.19176 9.22274L2.50326 13.4332C2.48525 13.5202 2.49219 13.6106 2.52328 13.6938C2.55437 13.777 2.60834 13.8498 2.67896 13.9036C2.74957 13.9575 2.83396 13.9903 2.92237 13.9981C3.01079 14.006 3.09963 13.9887 3.17864 13.9482L6.78303 11.9599C6.84939 11.923 6.92407 11.9036 7 11.9036C7.07593 11.9036 7.15061 11.923 7.21696 11.9599Z" fill="#FF710B"/>
</svg>
